<?xml version="1.0" encoding="UTF-8" standalone="no"?>
<svg width="39px" height="20px" viewBox="0 0 39 20" version="1.1" xmlns="http://www.w3.org/2000/svg" xmlns:xlink="http://www.w3.org/1999/xlink" xmlns:sketch="http://www.bohemiancoding.com/sketch/ns">
    <!-- Generator: Sketch 3.3.2 (12043) - http://www.bohemiancoding.com/sketch -->
    <title>brand_second_bridge</title>
    <desc>Created with Sketch.</desc>
    <defs></defs>
    <g id="Page-1" stroke="none" stroke-width="1" fill="none" fill-rule="evenodd" sketch:type="MSPage">
        <path d="M38.7969198,17.4930278 L29.882707,0.884902389 C29.8775075,0.875103641 29.8693368,0.868319891 29.8641373,0.859274893 C29.8589377,0.850229894 29.8567094,0.838923645 29.8515098,0.829878646 C29.8136276,0.765056154 29.7616324,0.713801161 29.7163222,0.655008668 C29.6762116,0.603753675 29.6420433,0.547222432 29.5967332,0.501243687 C29.5365672,0.439436195 29.4660023,0.392703701 29.3969229,0.341448707 C29.3486416,0.305268712 29.3055598,0.262304967 29.2535646,0.231401221 C29.171115,0.183161227 29.0812375,0.152257481 28.9921028,0.118338735 C28.9445643,0.100248737 28.9014825,0.0738674908 28.8532012,0.0602999925 C28.7120713,0.0211049974 28.564999,0 28.4142128,0 L10.5857872,0 C10.4357438,0 10.2886715,0.0211049974 10.1475416,0.0602999925 C10.0985175,0.0738674908 10.0561785,0.100248737 10.0093828,0.117584985 C9.91950531,0.151503731 9.82888504,0.183161227 9.74643544,0.231401221 C9.69518299,0.262304967 9.65210121,0.304514962 9.60381992,0.340694957 C9.53474053,0.391949951 9.46417556,0.439436195 9.40326684,0.501243687 C9.3579567,0.547222432 9.32453119,0.603753675 9.28442058,0.655008668 C9.23911044,0.713047411 9.1871152,0.765056154 9.14923295,0.829878646 C9.14329063,0.838923645 9.14180506,0.850229894 9.13660553,0.859274893 C9.13140601,0.868319891 9.12323533,0.875103641 9.1180358,0.884902389 L0.203080212,17.4930278 C-0.0784368826,18.0183915 -0.0665522559,18.6560639 0.234277357,19.1701214 C0.535849759,19.6849325 1.0817998,20 1.6715744,20 L37.3284256,20 C37.9182002,20 38.4641502,19.6849325 38.7657226,19.1701214 C39.0665523,18.6560639 39.0784369,18.0183915 38.7969198,17.4930278 L38.7969198,17.4930278 Z M13.3994726,3.39187458 L25.6012702,3.39187458 L19.5,14.7584232 L13.3994726,3.39187458 L13.3994726,3.39187458 Z M10.5857872,5.24157684 L16.6863146,16.6081254 L4.48451697,16.6081254 L10.5857872,5.24157684 L10.5857872,5.24157684 Z M22.3136854,16.6081254 L28.4142128,5.24157684 L34.515483,16.6081254 L22.3136854,16.6081254 L22.3136854,16.6081254 Z" id="brand_second_bridge" fill="#1ABC9C" sketch:type="MSShapeGroup"></path>
    </g>
</svg>