<?xml version="1.0" encoding="UTF-8" standalone="no"?>
<svg width="40px" height="40px" viewBox="0 0 40 40" version="1.1" xmlns="http://www.w3.org/2000/svg" xmlns:xlink="http://www.w3.org/1999/xlink" xmlns:sketch="http://www.bohemiancoding.com/sketch/ns">
    <!-- Generator: Sketch 3.3.2 (12043) - http://www.bohemiancoding.com/sketch -->
    <title>icon_swift</title>
    <desc>Created with Sketch.</desc>
    <defs></defs>
    <g id="Page-1" stroke="none" stroke-width="1" fill="none" fill-rule="evenodd" sketch:type="MSPage">
        <path d="M24.6113559,1 C42.1663559,12.7060451 36.4867797,25.593943 36.4867797,25.593943 C36.4867797,25.593943 41.4779237,31.1092696 39.47,35.9492874 C39.4699576,35.9492874 37.4047034,32.5725356 33.9625424,32.5725356 C30.6351271,32.5725356 28.6845763,35.9492874 21.9723729,35.9492874 C7.05639831,35.9492874 0,23.7367399 0,23.7367399 C13.4304237,32.4185273 22.6034322,26.2692933 22.6034322,26.2692933 C16.5447034,22.8168468 3.67161017,6.34652019 3.67161017,6.34652019 C14.8922458,15.7091449 19.735,18.1650891 19.735,18.1650891 C16.8359322,15.8234145 8.72008475,4.37675178 8.72008475,4.37675178 C15.2138559,10.8222803 28.1108898,19.7972031 28.1108898,19.7972031 C31.7896186,9.87640736 24.6113559,1 24.6113559,1" id="icon" fill="#1ABC9C" sketch:type="MSShapeGroup"></path>
    </g>
</svg>