<?xml version="1.0" encoding="UTF-8" standalone="no"?>
<svg width="40px" height="40px" viewBox="0 0 40 40" version="1.1" xmlns="http://www.w3.org/2000/svg" xmlns:xlink="http://www.w3.org/1999/xlink" xmlns:sketch="http://www.bohemiancoding.com/sketch/ns">
    <!-- Generator: Sketch 3.3.2 (12043) - http://www.bohemiancoding.com/sketch -->
    <title>icon_opensource</title>
    <desc>Created with Sketch.</desc>
    <defs></defs>
    <g id="Page-1" stroke="none" stroke-width="1" fill="none" fill-rule="evenodd" sketch:type="MSPage">
        <path d="M15.2786523,0.52652684 C19.1966915,-0.404351948 23.3939464,-0.0947155842 27.1351228,1.40619351 C31.4084562,3.10092078 35.0457111,6.35092078 37.2362993,10.4088905 C39.2010052,14.0161935 39.9966915,18.2494662 39.4833581,22.3310723 C38.9845346,26.512739 37.095515,30.5049208 34.2041425,33.5540117 C32.3115934,35.5772844 29.9774758,37.1538299 27.4508091,38.2604056 C26.0433581,34.4805571 24.5821817,30.7200117 23.2390444,26.9169208 C25.5139464,25.7540117 27.2127699,23.4825571 27.5162993,20.9152541 C28.0484562,17.4316481 25.8766915,13.8034662 22.5892405,12.602739 C19.5613974,11.3921632 15.8484562,12.368739 13.8108091,14.9238299 C11.8437503,17.2614662 11.4766915,20.792739 12.9119856,23.490042 C13.6625738,24.9929208 14.9566915,26.1440117 16.4108091,26.9405571 C15.0013974,30.7105571 13.5943385,34.4805571 12.1825738,38.2477996 C8.30492676,36.6172844 4.96610323,33.7265571 2.80610323,30.1031026 C0.979828725,27.0536177 -0.0221320594,23.5038299 0.00139735241,19.9418299 C-0.0527202946,15.5285268 1.46727971,11.1297996 4.18022088,7.66549654 C6.93080912,4.1121632 10.9119856,1.54092078 15.2786523,0.52652684" id="icon" fill="#1ABC9C" sketch:type="MSShapeGroup"></path>
    </g>
</svg>